<svg width="32" height="32" viewBox="0 0 32 32" fill="none" xmlns="http://www.w3.org/2000/svg">
<path d="M10.6667 2.66669V6.66669" stroke="#00A6A6" stroke-width="2" stroke-miterlimit="10" stroke-linecap="round" stroke-linejoin="round"/>
<path d="M21.3333 2.66669V6.66669" stroke="#00A6A6" stroke-width="2" stroke-miterlimit="10" stroke-linecap="round" stroke-linejoin="round"/>
<path d="M4.66669 12.12H27.3334" stroke="#00A6A6" stroke-width="2" stroke-miterlimit="10" stroke-linecap="round" stroke-linejoin="round"/>
<path d="M29.3334 25.3333C29.3334 26.3333 29.0534 27.28 28.56 28.08C27.64 29.6267 25.9467 30.6667 24 30.6667C22.6534 30.6667 21.4267 30.1733 20.4934 29.3333C20.08 28.9867 19.72 28.56 19.44 28.08C18.9467 27.28 18.6667 26.3333 18.6667 25.3333C18.6667 22.3867 21.0534 20 24 20C25.6 20 27.0267 20.7066 28 21.8133C28.8267 22.76 29.3334 23.9867 29.3334 25.3333Z" stroke="#00A6A6" stroke-width="2" stroke-miterlimit="10" stroke-linecap="round" stroke-linejoin="round"/>
<path d="M21.92 25.3333L23.24 26.6533L26.08 24.0266" stroke="#00A6A6" stroke-width="2" stroke-linecap="round" stroke-linejoin="round"/>
<path d="M28 11.3334V21.8133C27.0267 20.7067 25.6 20 24 20C21.0533 20 18.6667 22.3867 18.6667 25.3334C18.6667 26.3334 18.9467 27.28 19.44 28.08C19.72 28.56 20.08 28.9867 20.4933 29.3334H10.6667C6 29.3334 4 26.6667 4 22.6667V11.3334C4 7.33335 6 4.66669 10.6667 4.66669H21.3333C26 4.66669 28 7.33335 28 11.3334Z" stroke="#00A6A6" stroke-width="2" stroke-miterlimit="10" stroke-linecap="round" stroke-linejoin="round"/>
<path d="M15.994 18.2667H16.006" stroke="#00A6A6" stroke-width="3" stroke-linecap="round" stroke-linejoin="round"/>
<path d="M11.0591 18.2667H11.071" stroke="#00A6A6" stroke-width="3" stroke-linecap="round" stroke-linejoin="round"/>
<path d="M11.0591 22.2667H11.071" stroke="#00A6A6" stroke-width="3" stroke-linecap="round" stroke-linejoin="round"/>
</svg>
