<svg width="23" height="26" viewBox="0 0 23 26" fill="none" xmlns="http://www.w3.org/2000/svg">
<path d="M11.5974 6.28834V10.2546" stroke="#292D32" stroke-width="1.5" stroke-miterlimit="10" stroke-linecap="round"/>
<path d="M11.6212 1C7.23805 1 3.68867 4.54938 3.68867 8.93251V11.4337C3.68867 12.2437 3.35517 13.4586 2.93829 14.1494L1.42564 16.6744C0.496606 18.2347 1.13978 19.9737 2.85492 20.5454C8.54822 22.4392 14.706 22.4392 20.3993 20.5454C22.0073 20.0094 22.6981 18.1275 21.8286 16.6744L20.316 14.1494C19.8991 13.4586 19.5656 12.2318 19.5656 11.4337V8.93251C19.5537 4.5732 15.9805 1 11.6212 1Z" stroke="#292D32" stroke-width="1.5" stroke-miterlimit="10" stroke-linecap="round"/>
<path d="M15.5636 21.0337C15.5636 23.2134 13.777 25 11.5973 25C10.5135 25 9.51297 24.5474 8.79833 23.8328C8.08369 23.1181 7.63109 22.1176 7.63109 21.0337" stroke="#292D32" stroke-width="1.5" stroke-miterlimit="10"/>
</svg>
