<svg width="32" height="32" viewBox="0 0 32 32" fill="none" xmlns="http://www.w3.org/2000/svg">
<path d="M16 16C19.6819 16 22.6666 13.0153 22.6666 9.33335C22.6666 5.65146 19.6819 2.66669 16 2.66669C12.3181 2.66669 9.33331 5.65146 9.33331 9.33335C9.33331 13.0153 12.3181 16 16 16Z" stroke="#00A6A6" stroke-width="2" stroke-linecap="round" stroke-linejoin="round"/>
<path d="M25.6133 20.9867L20.8933 25.7067C20.7066 25.8934 20.5333 26.24 20.4933 26.4934L20.24 28.2933C20.1466 28.9467 20.6 29.4 21.2533 29.3067L23.0533 29.0533C23.3066 29.0133 23.6666 28.84 23.84 28.6534L28.5599 23.9334C29.3733 23.1201 29.7599 22.1733 28.5599 20.9733C27.3733 19.7867 26.4267 20.1734 25.6133 20.9867Z" stroke="#00A6A6" stroke-width="2" stroke-miterlimit="10" stroke-linecap="round" stroke-linejoin="round"/>
<path d="M24.9333 21.6667C25.3333 23.1067 26.4533 24.2266 27.8933 24.6266" stroke="#00A6A6" stroke-width="2" stroke-miterlimit="10" stroke-linecap="round" stroke-linejoin="round"/>
<path d="M4.54663 29.3333C4.54663 24.1733 9.68 20 16 20C17.3867 20 18.72 20.2 19.96 20.5733" stroke="#00A6A6" stroke-width="2" stroke-linecap="round" stroke-linejoin="round"/>
</svg>
