<svg width="18" height="24" viewBox="0 0 18 24" fill="none" xmlns="http://www.w3.org/2000/svg">
<path d="M8.16271 10.4941L8.22107 10.4961L8.26438 10.4875C8.26542 10.4874 8.2666 10.4873 8.26792 10.4872C8.28109 10.4865 8.30091 10.4859 8.32676 10.4859C8.37847 10.4859 8.44173 10.4882 8.5025 10.4929L8.53311 10.4952L8.56378 10.4938C11.0408 10.3801 12.9832 8.34507 12.9958 5.85041V5.84789C12.9958 3.28442 10.9015 1.19014 8.33803 1.19014C5.77456 1.19014 3.68028 3.28442 3.68028 5.84789C3.68028 8.37097 5.65157 10.4057 8.16271 10.4941ZM8.51831 11.1845H8.51811H8.51792H8.51772H8.51752H8.51732H8.51713H8.51693H8.51674H8.51654H8.51634H8.51615H8.51595H8.51576H8.51556H8.51537H8.51518H8.51498H8.51479H8.51459H8.5144H8.51421H8.51402H8.51382H8.51363H8.51344H8.51325H8.51305H8.51286H8.51267H8.51248H8.51229H8.5121H8.51191H8.51172H8.51153H8.51134H8.51115H8.51096H8.51077H8.51058H8.5104H8.51021H8.51002H8.50983H8.50964H8.50946H8.50927H8.50908H8.5089H8.50871H8.50852H8.50834H8.50815H8.50797H8.50778H8.5076H8.50741H8.50723H8.50704H8.50686H8.50667H8.50649H8.5063H8.50612H8.50594H8.50575H8.50557H8.50539H8.5052H8.50502H8.50484H8.50466H8.50448H8.50429H8.50411H8.50393H8.50375H8.50357H8.50339H8.50321H8.50303H8.50285H8.50267H8.50248H8.50231H8.50213H8.50195H8.50177H8.50159H8.50141H8.50123H8.50105H8.50087H8.50069H8.50052H8.50034H8.50016H8.49998H8.4998H8.49963H8.49945H8.49927H8.4991H8.49892H8.49874H8.49857H8.49839H8.49821H8.49804H8.49786H8.49769H8.49751H8.49733H8.49716H8.49698H8.49681H8.49663H8.49646H8.49629H8.49611H8.49594H8.49576H8.49559H8.49541H8.49524H8.49507H8.49489H8.49472H8.49455H8.49437H8.4942H8.49403H8.49386H8.49368H8.49351H8.49334H8.49317H8.49299H8.49282H8.49265H8.49248H8.49231H8.49213H8.49196H8.49179H8.49162H8.49145H8.49128H8.49111H8.49094H8.49077H8.4906H8.49043H8.49025H8.49008H8.48991H8.48974H8.48957H8.4894H8.48923H8.48907H8.4889H8.48873H8.48856H8.48839H8.48822H8.48805H8.48788H8.48771H8.48754H8.48737H8.48721H8.48704H8.48687H8.4867H8.48653H8.48636H8.4862H8.48603H8.48586H8.48569H8.48552H8.48536H8.48519H8.48502H8.48485H8.48469H8.48452H8.48435H8.48418H8.48402H8.48385H8.48368H8.48351H8.48335H8.48318H8.48301H8.48285H8.48268H8.48251H8.48235H8.48218H8.48201H8.48185H8.48168H8.48151H8.48135H8.48118H8.48102H8.48085H8.48068H8.48052H8.48035H8.48019H8.48002H8.47985H8.47969H8.47952H8.47936H8.47919H8.47903H8.47886H8.47869H8.47853H8.47836H8.4782H8.47803H8.47787H8.4777H8.47754H8.47737H8.47721H8.47704H8.47687H8.47671H8.47654H8.47638H8.47621H8.47605H8.47588H8.47572H8.47555H8.47539H8.47522H8.47506H8.47489H8.47473H8.47456H8.4744H8.47423H8.47407H8.4739H8.47374H8.47357H8.47341H8.47324H8.47308H8.47291H8.47275H8.47258H8.47242H8.47225H8.47209H8.47192H8.47176H8.47159H8.47143H8.47126H8.4711H8.47093H8.47077H8.4706H8.47043H8.47027H8.4701H8.46994H8.46977H8.46961H8.46944H8.46928H8.46911H8.46895H8.46878H8.46862H8.46845H8.46829H8.46812H8.46795H8.46779H8.46762H8.46746H8.46729H8.46713H8.46696H8.4669C8.37794 11.173 8.28483 11.1739 8.20043 11.1834C5.21997 11.0705 2.99014 8.72791 2.99014 5.84789C2.99014 2.90149 5.39164 0.5 8.33803 0.5C11.2841 0.5 13.6854 2.90097 13.6859 5.84692C13.6752 8.74406 11.4114 11.0878 8.54389 11.1845H8.54386H8.5438H8.54373H8.54366H8.5436H8.54353H8.54347H8.5434H8.54333H8.54327H8.5432H8.54314H8.54307H8.543H8.54294H8.54287H8.54281H8.54274H8.54267H8.54261H8.54254H8.54248H8.54241H8.54234H8.54228H8.54221H8.54215H8.54208H8.54201H8.54195H8.54188H8.54182H8.54175H8.54168H8.54162H8.54155H8.54149H8.54142H8.54135H8.54129H8.54122H8.54115H8.54109H8.54102H8.54096H8.54089H8.54082H8.54076H8.54069H8.54063H8.54056H8.54049H8.54043H8.54036H8.5403H8.54023H8.54016H8.5401H8.54003H8.53997H8.5399H8.53983H8.53977H8.5397H8.53964H8.53957H8.5395H8.53944H8.53937H8.53931H8.53924H8.53917H8.53911H8.53904H8.53898H8.53891H8.53884H8.53878H8.53871H8.53865H8.53858H8.53851H8.53845H8.53838H8.53832H8.53825H8.53818H8.53812H8.53805H8.53799H8.53792H8.53785H8.53779H8.53772H8.53766H8.53759H8.53752H8.53746H8.53739H8.53733H8.53726H8.53719H8.53713H8.53706H8.537H8.53693H8.53686H8.5368H8.53673H8.53667H8.5366H8.53653H8.53647H8.5364H8.53634H8.53627H8.5362H8.53614H8.53607H8.53601H8.53594H8.53587H8.53581H8.53574H8.53568H8.53561H8.53554H8.53548H8.53541H8.53535H8.53528H8.53521H8.53515H8.53508H8.53502H8.53495H8.53488H8.53482H8.53475H8.53469H8.53462H8.53455H8.53449H8.53442H8.53436H8.53429H8.53422H8.53416H8.53409H8.53402H8.53396H8.53389H8.53383H8.53376H8.53369H8.53363H8.53356H8.5335H8.53343H8.53336H8.5333H8.53323H8.53317H8.5331H8.53303H8.53297H8.5329H8.53284H8.53277H8.5327H8.53264H8.53257H8.53251H8.53244H8.53237H8.53231H8.53224H8.53218H8.53211H8.53204H8.53198H8.53191H8.53185H8.53178H8.53171H8.53165H8.53158H8.53152H8.53145H8.53138H8.53132H8.53125H8.53119H8.53112H8.53105H8.53099H8.53092H8.53086H8.53079H8.53072H8.53066H8.53059H8.53053H8.53046H8.53039H8.53033H8.53026H8.5302H8.53013H8.53006H8.53H8.52993H8.52987H8.5298H8.52973H8.52967H8.5296H8.52954H8.52947H8.5294H8.52934H8.52927H8.52921H8.52914H8.52907H8.52901H8.52894H8.52888H8.52881H8.52874H8.52868H8.52861H8.52855H8.52848H8.52841H8.52835H8.52828H8.52821H8.52815H8.52808H8.52802H8.52795H8.52788H8.52782H8.52775H8.52769H8.52762H8.52755H8.52749H8.52742H8.52736H8.52729H8.52723H8.52716H8.52709H8.52703H8.52696H8.52689H8.52683H8.52676H8.5267H8.52663H8.52656H8.5265H8.52643H8.52637H8.5263H8.52623H8.52617H8.5261H8.52604H8.52597H8.5259H8.52584H8.52577H8.52571H8.52564H8.52557H8.52551H8.52544H8.52538H8.52531H8.52524H8.52518H8.52511H8.52505H8.52498H8.52491H8.52485H8.52478H8.52472H8.52465H8.52458H8.52452H8.52445H8.52439H8.52432H8.52425H8.52419H8.52412H8.52406H8.52399H8.52392H8.52386H8.52379H8.52373H8.52366H8.52359H8.52353H8.52346H8.5234H8.52333H8.52326H8.5232H8.52313H8.52307H8.523H8.52293H8.52287H8.5228H8.52274H8.52267H8.5226H8.52254H8.52247H8.52241H8.52234H8.52227H8.52221H8.52214H8.52208H8.52201H8.52194H8.52188H8.52181H8.52175H8.52168H8.52161H8.52155H8.52148H8.52141H8.52135H8.52128H8.52122H8.52115H8.52108H8.52102H8.52095H8.52089H8.52082H8.52075H8.52069H8.52062H8.52056H8.52049H8.52042H8.52036H8.52029H8.52023H8.52016H8.52009H8.52003H8.51996H8.5199H8.51983H8.51976H8.5197H8.51963H8.51957H8.5195H8.51943H8.51937H8.5193H8.51924H8.51917H8.5191H8.51904H8.51897H8.51891H8.51884H8.51877H8.51871H8.51864H8.51858H8.51851H8.51844H8.51838H8.51831Z" stroke="#292D32"/>
<path d="M2.69973 14.7035C1.2394 15.6808 0.5 16.9699 0.5 18.3099C0.5 19.649 1.23849 20.9266 2.6985 21.8929L2.70118 21.8947C4.28049 22.9546 6.39748 23.5 8.52958 23.5C10.6607 23.5 12.7674 22.9551 14.3592 21.8939L2.69973 14.7035ZM2.69973 14.7035C4.29136 13.648 6.4036 13.1056 8.53803 13.1056C10.673 13.1056 12.7792 13.6482 14.3589 14.7031L14.3593 14.7034C15.8109 15.6711 16.5592 16.9497 16.5592 18.2873C16.5592 19.6274 15.8197 20.9165 14.3593 21.8938L2.69973 14.7035ZM3.0804 15.291C1.91059 16.0709 1.19014 17.1318 1.19014 18.3211C1.19014 19.5019 1.92476 20.562 3.08029 21.3286C4.58433 22.337 6.57196 22.8239 8.52958 22.8239C10.4874 22.8239 12.4752 22.3369 13.9793 21.3283C15.1488 20.5485 15.869 19.4878 15.869 18.2986C15.869 17.1177 15.1341 16.0574 13.9783 15.2907C12.4743 14.2882 10.4869 13.8042 8.52958 13.8042C6.57206 13.8042 4.5844 14.2884 3.0804 15.291Z" stroke="#292D32"/>
</svg>
