<svg width="235" height="54" viewBox="0 0 235 54" fill="none" xmlns="http://www.w3.org/2000/svg">
<path d="M148.5 22L153.183 16.6927C154.709 14.9626 157.379 14.8792 159.011 16.5107L169.172 26.6716C171.691 29.1914 169.907 33.5 166.343 33.5H141.5C133.768 33.5 127.5 27.232 127.5 19.5V5" stroke="#12171C" stroke-width="6"/>
<path d="M161.5 50V46H165.5V50H161.5Z" stroke="#00A6A6" stroke-width="4"/>
<path d="M87.5 12V8H101.5V12H87.5Z" stroke="#00A6A6" stroke-width="4"/>
<path d="M51.5 50V46H65.5V50H51.5Z" stroke="#00A6A6" stroke-width="4"/>
<path d="M113 18V20C113 27.732 106.732 34 99 34H39M39 34V5.5M39 34H17C9.26801 34 3 27.732 3 20V19" stroke="#12171C" stroke-width="6"/>
<path d="M18.2143 2L15.5633 4.82387C14.8802 5.5515 14.5 6.51205 14.5 7.51008V7.51008C14.5 9.67763 16.2572 11.4348 18.4247 11.4348H21.0714M21.0714 11.4348L24.5 7.78261M21.0714 11.4348L16.7857 16" stroke="#12171C" stroke-width="5"/>
<rect x="183" y="2" width="52" height="52" rx="11" fill="#00A6A6"/>
<path d="M220 28V28C220 30.7884 220 32.1826 219.749 33.3382C218.833 37.5463 215.546 40.8332 211.338 41.7486C210.183 42 208.788 42 206 42V42" stroke="#12171C" stroke-width="6" stroke-linecap="round"/>
<path d="M218 17V14H222V17H218Z" fill="#00A6A6" stroke="#12171C" stroke-width="3"/>
<path d="M196 17V14H216V17H196Z" fill="#00A6A6" stroke="#12171C" stroke-width="3"/>
</svg>
